<svg width="120" height="120" xmlns="http://www.w3.org/2000/svg" preserveAspectRatio="xMidYMid">
 <defs>
  <style>.cls-2 {
        fill: #3399cc;
      }</style>
 </defs>
 <g>
  <title>Layer 1</title>
  <path fill="black" fill-rule="evenodd" class="cls-2" id="path-1" d="m116.48399,63.98809c6.07701,-5.936 4.19901,-17.942 -6.325,-17.942c0,0 -27.687,0.018 -27.687,0.018c1.049,-5.754 2.57201,-15.292 2.51301,-16.192c-0.581,-8.531 -6.12199,-18.912 -6.36101,-19.336c-1.00899,-1.848 -6.113,-4.351 -11.24799,-3.278c-6.63601,1.395 -7.31401,5.55 -7.28701,6.696c0,0 0.286,11.366 0.315,14.401c-3.173,6.84 -14.116,24.818 -17.434,26.202c-0.793,-0.471 -1.691,-0.723 -2.628,-0.723c0,0 -34.981,0 -34.981,0c-2.971,0 -5.361,2.359 -5.361,5.26c0,0 0.004,47.44701 0.004,47.44701c0.208,2.556 2.422,4.563 5.039,4.563c0,0 31.42,0 31.42,0c2.784,0 5.05,-2.22401 5.05,-4.96101c0,0 0,-1.57401 0,-1.57401c0,0 1.167,-0.084 1.698,0.24801c2.021,1.26399 4.516,2.847 7.773,2.847c0,0 46.88599,0 46.88599,0c17.528,0 15.645,-15.27101 14.05101,-17.35701c2.95499,-3.161 4.78799,-8.745 2.28799,-13.153c1.919,-1.99399 5.298,-7.48499 2.27499,-13.16599zm-81.10199,42.146c0,0 -30.35,0 -30.35,0c0,0 0,-47.348 0,-47.348c0,0 30.35,0 30.35,0c0,0 0,47.348 0,47.348zm72.926,-42.553c0,0 -0.289,1.172 -0.289,1.172c8.077,2.254 3.775,11.388 -2.018,11.985c0,0 -0.284,1.172 -0.284,1.172c7.744,1.93199 4.05,11.33999 -2.014,11.98099c0,0 -0.288,1.16701 -0.288,1.16701c6.32501,1.022 4.793,11.61399 -4.78899,11.61399c0,0 -47.689,0.02301 -47.689,0.02301c-3.367,0 -6.435,-3.767 -8.913,-3.767c0,0 -2.162,0 -2.162,0c0,0 0,-36.453 0,-36.453c2.694,-1.638 6.005,-3.766 7.845,-5.301c3.48,-2.911 17.714,-25.487 17.714,-28.312c0,-2.826 -0.311,-15.05 -0.311,-15.05c0,0 2.788,-3.53 9.023,-0.955c0,0 5.244,9.654 5.78,17.344c0,0 -2.36499,15.845 -3.631,20.817c0,0 33.062,0 33.062,0c8.122,0.009 6.572,11.391 -1.036,12.563z"/>
 </g>
</svg>